<?xml version="1.0" encoding="iso-8859-1"?>
<!-- Generator: Adobe Illustrator 19.0.0, SVG Export Plug-In . SVG Version: 6.00 Build 0)  -->
<svg version="1.1" id="Capa_1" xmlns="http://www.w3.org/2000/svg" xmlns:xlink="http://www.w3.org/1999/xlink" x="0px" y="0px"
	 viewBox="0 0 417.986 417.986" style="enable-background:new 0 0 417.986 417.986;" xml:space="preserve">
<g>
	<g>
		<path style="fill:#00ACEA;" d="M207.935,253.676v63.216c0,11.542-9.356,20.898-20.898,20.898h-68.963l-45.976,50.155
			L60.604,337.79H29.257c-11.249,0.292-20.606-8.59-20.898-19.839c-0.009-0.353-0.009-0.706,0-1.059v-97.176
			c-0.292-11.249,8.59-20.606,19.839-20.898c0.353-0.009,0.706-0.009,1.059,0h55.38v13.061c0,23.083,18.713,41.796,41.796,41.796
			H207.935z"/>
		<path style="fill:#00EFD1;" d="M207.935,253.676h-81.502c-23.083,0-41.796-18.713-41.796-41.796V69.251
			c0-23.083,18.713-41.796,41.796-41.796h241.371c23.083,0,41.796,18.713,41.796,41.796V211.88
			c0,23.083-18.713,41.796-41.796,41.796h-42.841L306.678,335.7l-74.71-82.025H207.935z"/>
	</g>
	<g>
		<path style="fill:#083863;" d="M368.327,19.619H126.433c-28.735,0-53.29,20.898-53.29,49.633v117.551H28.735
			C11.494,186.802,0,202.476,0,219.716v97.176c0,17.241,11.494,31.869,28.735,31.869h23.51l9.404,41.796
			c0.909,3.707,3.679,6.674,7.314,7.837h3.135c2.756-0.039,5.385-1.166,7.314-3.135l42.841-46.498h64.784
			c17.575-0.27,31.836-14.301,32.392-31.869V265.17h7.837l71.575,77.845c1.699,2.336,4.427,3.7,7.314,3.657h3.135
			c3.559-0.976,6.339-3.756,7.314-7.314l16.718-74.188h35.004c28.735,0,49.633-24.555,49.633-53.29V69.251
			c0.88-26.531-19.914-48.752-46.445-49.633C370.452,19.583,369.389,19.583,368.327,19.619z M198.531,316.892
			c-0.521,6.03-5.446,10.731-11.494,10.971h-69.486c-2.756,0.039-5.385,1.166-7.314,3.135l-32.914,35.527L70.531,335.7
			c-1.22-4.736-5.561-7.991-10.449-7.837H28.735c-5.747,0-7.837-5.224-7.837-10.971v-97.176c0-5.747,2.09-12.016,7.837-12.016
			h44.408v4.18c0.556,29.198,24.092,52.734,53.29,53.29h72.098V316.892z M397.061,211.88c0,17.241-11.494,32.392-28.735,32.392
			h-43.363c-4.834-0.335-9.131,3.057-9.927,7.837l-14.106,62.171l-61.649-66.873c-1.929-1.969-4.558-3.095-7.314-3.135H126.433
			c-17.659-0.544-31.848-14.732-32.392-32.392V69.251c0-17.241,15.151-28.735,32.392-28.735h241.894
			c14.978-0.892,27.842,10.526,28.735,25.504c0.064,1.076,0.064,2.155,0,3.231V211.88z"/>
		<path style="fill:#083863;" d="M265.927,118.884H140.539c-5.771,0-10.449-4.678-10.449-10.449c0-5.771,4.678-10.449,10.449-10.449
			h125.388c5.771,0,10.449,4.678,10.449,10.449C276.376,114.206,271.697,118.884,265.927,118.884z"/>
		<path style="fill:#083863;" d="M349.518,181.578h-208.98c-5.771,0-10.449-4.678-10.449-10.449c0-5.771,4.678-10.449,10.449-10.449
			h208.98c5.771,0,10.449,4.678,10.449,10.449C359.967,176.9,355.289,181.578,349.518,181.578z"/>
	</g>
</g>
<g>
</g>
<g>
</g>
<g>
</g>
<g>
</g>
<g>
</g>
<g>
</g>
<g>
</g>
<g>
</g>
<g>
</g>
<g>
</g>
<g>
</g>
<g>
</g>
<g>
</g>
<g>
</g>
<g>
</g>
</svg>
